<svg width="25" height="53" viewBox="0 0 25 53" fill="none" xmlns="http://www.w3.org/2000/svg">
<path d="M24.4213 39.8158L24.4213 39.8158C24.1313 39.5258 23.682 39.5258 23.392 39.8158L23.6041 40.028L23.392 39.8158L13.4016 49.8062L13.4016 1.4322C13.4016 1.23437 13.3343 1.04619 13.1949 0.906723C13.0554 0.767254 12.8672 0.699999 12.6694 0.699999C12.4715 0.699999 12.2834 0.767254 12.1439 0.906723C12.0044 1.04619 11.9372 1.23437 11.9372 1.4322L11.9372 49.8062L1.94676 39.8158C1.65672 39.5258 1.20745 39.5258 0.917414 39.8158C0.771034 39.9622 0.699885 40.1699 0.699885 40.3305C0.699885 40.4303 0.716877 40.527 0.758156 40.6198C0.798855 40.7114 0.856484 40.7843 0.917414 40.8452L12.1547 52.0825L12.3668 51.8703L12.1547 52.0825C12.4447 52.3725 12.894 52.3725 13.184 52.0825L12.9719 51.8703L13.184 52.0825L24.4213 40.8452C24.7114 40.5551 24.7114 40.1059 24.4213 39.8158Z" fill="white" stroke="white" stroke-width="0.6"/>
</svg>
