<svg width="25" height="18" viewBox="0 0 25 18" fill="none" xmlns="http://www.w3.org/2000/svg">
<path d="M16.2449 1.08846C16.1269 0.970513 15.95 0.970513 15.8321 1.08846C15.7141 1.20641 15.7141 1.38333 15.8321 1.50128L22.9974 8.66667H1.29487C1.11795 8.66667 1 8.78461 1 8.96154C1 9.13846 1.11795 9.25641 1.29487 9.25641H22.9974L15.8321 16.4218C15.7141 16.5397 15.7141 16.7167 15.8321 16.8346C15.891 16.8936 15.9795 16.9231 16.0385 16.9231C16.1269 16.9231 16.1859 16.8936 16.2449 16.8346L23.9115 9.16795C24.0295 9.05 24.0295 8.87308 23.9115 8.75513L16.2449 1.08846Z" fill="white" stroke="white" stroke-miterlimit="10"/>
</svg>
