<svg width="114" height="114" viewBox="0 0 114 114" fill="none" xmlns="http://www.w3.org/2000/svg">
<circle opacity="0.7" cx="57" cy="57" r="56.75" stroke="#464646" stroke-width="0.5"/>
<path d="M65.5281 49.9804C65.3543 49.8065 65.0864 49.8065 64.9126 49.9804C64.7387 50.1542 64.7387 50.4221 64.9126 50.5959L71.6582 57.3415H39.2881C39.1676 57.3415 39.0555 57.3824 38.9732 57.4647C38.8908 57.547 38.85 57.6591 38.85 57.7797C38.85 57.9002 38.8908 58.0123 38.9732 58.0946C39.0555 58.177 39.1676 58.2178 39.2881 58.2178H71.6582L64.9126 64.9634C64.7387 65.1373 64.7387 65.4051 64.9126 65.579C65.0002 65.6665 65.1256 65.7093 65.2203 65.7093C65.2811 65.7093 65.3384 65.699 65.3929 65.6748C65.4468 65.6508 65.4904 65.6166 65.5281 65.579L73.0196 58.0874C73.1935 57.9136 73.1935 57.6457 73.0196 57.4719L65.5281 49.9804Z" fill="white" stroke="white" stroke-width="0.3"/>
</svg>
