<svg viewBox="0 0 16 21" fill="none" xmlns="http://www.w3.org/2000/svg">
<g clip-path="url(#clip0)">
<path d="M-98.065 13.953H-100.849V0.438999H-102.85L-112.188 13.721V16.041H-103.169V21H-100.849V16.041H-98.065V13.953ZM-103.169 13.953H-110.013L-103.169 4.064V13.953ZM-82.3857 5.775C-82.6467 2.411 -84.8507 0.438999 -88.3017 0.438999C-94.3627 0.438999 -95.7547 6.268 -95.7547 11.198C-95.7547 15.983 -94.5367 21.406 -88.5917 21.406C-84.4157 21.406 -81.8347 18.39 -81.8347 14.417C-81.8347 10.473 -84.3867 7.834 -88.2147 7.834C-90.3607 7.834 -92.1877 8.704 -93.3187 10.531C-93.1737 7.747 -92.7967 2.585 -88.3887 2.585C-86.3007 2.585 -85.1697 3.861 -84.9087 5.775H-82.3857ZM-88.6497 9.98C-86.0687 9.98 -84.4447 11.778 -84.4447 14.649C-84.4447 17.433 -86.1267 19.202 -88.5917 19.202C-91.1147 19.202 -92.8547 17.375 -92.8547 14.533C-92.8547 11.807 -91.1437 9.98 -88.6497 9.98ZM-72.7385 0.438999C-79.0895 0.438999 -79.5825 6.268 -79.5825 11.169C-79.5825 16.07 -78.8575 21.406 -72.6225 21.406C-66.7355 21.406 -65.8655 16.07 -65.8655 11.227C-65.8655 6.326 -66.3295 0.438999 -72.7385 0.438999ZM-72.7385 2.643C-68.4175 2.643 -68.5045 8.008 -68.5045 11.053C-68.5045 14.011 -68.4755 19.231 -72.6805 19.231C-76.8855 19.231 -76.9725 14.214 -76.9725 11.169C-76.9725 8.037 -77.0595 2.643 -72.7385 2.643ZM-59.0312 17.781H-62.2502V21H-60.6552C-60.6842 22.595 -61.1482 23.465 -62.2502 23.842V25.292C-59.3792 24.538 -59.0312 22.334 -59.0312 19.753V17.781ZM-42.9269 0.815999H-53.0769L-54.9909 11.488L-52.8739 11.633C-51.9459 10.299 -50.6119 9.632 -48.9299 9.632C-46.2619 9.632 -44.4349 11.633 -44.4349 14.475C-44.4349 17.23 -46.3489 19.318 -48.9009 19.318C-51.1919 19.318 -52.8739 17.752 -53.0769 15.461H-55.5709C-55.4549 19.057 -52.8449 21.406 -48.9299 21.406C-44.6669 21.406 -41.8249 18.361 -41.8249 14.214C-41.8249 10.212 -44.4639 7.486 -48.3209 7.486C-50.0029 7.486 -51.3369 7.892 -52.4679 9.11L-51.2499 2.991H-42.9269V0.815999ZM-32.4387 0.438999C-38.7897 0.438999 -39.2827 6.268 -39.2827 11.169C-39.2827 16.07 -38.5577 21.406 -32.3227 21.406C-26.4357 21.406 -25.5657 16.07 -25.5657 11.227C-25.5657 6.326 -26.0297 0.438999 -32.4387 0.438999ZM-32.4387 2.643C-28.1177 2.643 -28.2047 8.008 -28.2047 11.053C-28.2047 14.011 -28.1757 19.231 -32.3807 19.231C-36.5857 19.231 -36.6727 14.214 -36.6727 11.169C-36.6727 8.037 -36.7597 2.643 -32.4387 2.643ZM-16.3244 0.438999C-22.6754 0.438999 -23.1684 6.268 -23.1684 11.169C-23.1684 16.07 -22.4434 21.406 -16.2084 21.406C-10.3214 21.406 -9.45142 16.07 -9.45142 11.227C-9.45142 6.326 -9.91542 0.438999 -16.3244 0.438999ZM-16.3244 2.643C-12.0034 2.643 -12.0904 8.008 -12.0904 11.053C-12.0904 14.011 -12.0614 19.231 -16.2664 19.231C-20.4714 19.231 -20.5584 14.214 -20.5584 11.169C-20.5584 8.037 -20.6454 2.643 -16.3244 2.643ZM2.64113 21V17.056H0.118125V15.171H2.64113V12.59H0.118125V10.386H2.64113V0.293999H8.09313C10.6258 0.293999 12.5011 0.806332 13.7191 1.831C14.9565 2.85567 15.5751 4.34433 15.5751 6.297C15.5751 8.269 14.9081 9.81567 13.5741 10.937C12.2401 12.039 10.2778 12.59 7.68713 12.59H5.25113V15.171H10.0361V17.056H5.25113V21H2.64113ZM7.31013 10.386C9.06946 10.386 10.4325 10.096 11.3991 9.516C12.3851 8.936 12.8781 7.892 12.8781 6.384C12.8781 5.06933 12.4721 4.093 11.6601 3.455C10.8481 2.817 9.58179 2.498 7.86113 2.498H5.25113V10.386H7.31013Z" fill="black"/>
</g>
<defs>
<clipPath id="clip0">
<rect width="16" height="21" fill="white"/>
</clipPath>
</defs>
</svg>
