<svg width="27" height="21" viewBox="0 0 27 21">
    <path d="M13.3834 17.1067C12.4798 17.1067 11.749 17.8393 11.749 18.7411C11.749 19.6447 12.4816 20.3755 13.3834 20.3755C14.2869 20.3755 15.0177 19.6429 15.0177 18.7411C15.0177 17.8393 14.2869 17.1067 13.3834 17.1067ZM27 5.75265C27 5.23426 26.5788 4.81667 26.064 4.81667H26.0514C26.0478 4.81667 26.046 4.81667 26.0424 4.81667H8.5181L7.03674 0.651583C6.89814 0.260993 6.52735 0 6.11156 0H0.981697C0.409312 0 -0.0496754 0.491387 0.00432317 1.07817C0.0529219 1.58936 0.51011 1.96555 1.0231 1.96555H5.41858L10.1957 15.3968C10.336 15.7874 10.705 16.0484 11.1226 16.0484H21.6379C22.0645 16.0484 22.4515 15.8018 22.6315 15.4148L26.9082 6.20623C26.9712 6.06944 26.9982 5.92544 26.9964 5.78505C26.9964 5.77425 27 5.76345 27 5.75265ZM9.77446 8.34638L9.18228 6.68862H24.5215L23.7439 8.36258C23.6935 8.35358 23.6431 8.34638 23.5909 8.34638H9.77446ZM21.0836 14.0828H11.8156L10.4404 10.2219H22.8781L21.0836 14.0828ZM19.1918 17.1067C18.2882 17.1067 17.5575 17.8393 17.5575 18.7411C17.5575 19.6447 18.29 20.3755 19.1918 20.3755C20.0954 20.3755 20.8262 19.6429 20.8262 18.7411C20.8262 17.8393 20.0936 17.1067 19.1918 17.1067Z" fill="currentColor"/>
</svg>
